<?xml version="1.0" encoding="UTF-8" standalone="no"?>
<svg
   xmlns:dc="http://purl.org/dc/elements/1.1/"
   xmlns:cc="http://creativecommons.org/ns#"
   xmlns:rdf="http://www.w3.org/1999/02/22-rdf-syntax-ns#"
   xmlns:svg="http://www.w3.org/2000/svg"
   xmlns="http://www.w3.org/2000/svg"
   version="1.1"
   id="svg5681"
   height="318.89764"
   width="212.59842">
  <defs
     id="defs3" />
  <metadata
     id="metadata4">
    <rdf:RDF>
      <cc:Work
         rdf:about="">
        <dc:format>image/svg+xml</dc:format>
        <dc:type
           rdf:resource="http://purl.org/dc/dcmitype/StillImage" />
        <dc:title />
      </cc:Work>
    </rdf:RDF>
  </metadata>
  <g
     transform="translate(0,-733.46455)"
     id="layer1">
    <g id="picto"
       style="fill:#000000;fill-opacity:1"
       transform="matrix(1.2719852,0,0,1.2571213,-2081.1035,3344.1597)">
      <path
         style="fill:#000000;fill-opacity:1;stroke:none"
         d="m 1718.198,-1840.0328 -0.7174,-55.2429 -16.7403,-25.5888 -17.4577,27.2628 z"
         id="path30527-8" />
      <path
         style="fill:#000000;fill-opacity:1;stroke:none"
         d="m 1723.6984,-1840.5111 0,-54.7646 15.7837,-23.6756 17.6969,27.5019 z"
         id="path30529-52" />
      <path
         style="fill:#000000;fill-opacity:1;stroke:none"
         d="m 1717.2414,-1899.8195 -32.7631,-49.7426 16.262,-24.8713 16.7403,27.0236 z"
         id="path30531-5" />
      <path
         style="fill:#000000;fill-opacity:1;stroke:none"
         d="m 1723.6984,-1900.537 33.2414,-49.7425 -15.5445,-23.1973 -17.6969,25.5887 z"
         id="path30533-3" />
      <path
         style="fill:#000000;fill-opacity:1;stroke:none"
         d="m 1717.4806,-1951.9536 -32.7631,-51.8948 15.5445,-24.1539 17.2186,25.3496 z"
         id="path30535-0" />
      <path
         style="fill:#000000;fill-opacity:1;stroke:none"
         d="m 1723.4593,-1952.671 0.2391,-50.46 17.4577,-25.5887 14.8271,24.1538 z"
         id="path30537-97" />
      <path
         style="fill:#000000;fill-opacity:1;stroke:none"
         d="m 1720.3503,-2004.0876 -16.2619,-24.1538 16.5011,-26.7845 16.5011,26.5453 z"
         id="path30539-4" />
    </g>
  </g>
</svg>
