<?xml version="1.0" encoding="UTF-8" standalone="no"?>
<svg
   xmlns:dc="http://purl.org/dc/elements/1.1/"
   xmlns:cc="http://creativecommons.org/ns#"
   xmlns:rdf="http://www.w3.org/1999/02/22-rdf-syntax-ns#"
   xmlns:svg="http://www.w3.org/2000/svg"
   xmlns="http://www.w3.org/2000/svg"
   version="1.1"
   id="svg5681"
   height="318.89764"
   width="212.59842">
  <defs
     id="defs3" />
  <metadata
     id="metadata4">
    <rdf:RDF>
      <cc:Work
         rdf:about="">
        <dc:format>image/svg+xml</dc:format>
        <dc:type
           rdf:resource="http://purl.org/dc/dcmitype/StillImage" />
        <dc:title />
      </cc:Work>
    </rdf:RDF>
  </metadata>
  <g
     transform="translate(0,-733.46455)"
     id="layer1">
    <g id="picto"
       transform="matrix(1.0653836,0,0,1.0653836,-2293.9503,2973.5246)"
       style="fill:#000000;fill-opacity:1">
      <path
         style="fill:#000000;fill-opacity:1;stroke:none"
         d="m 2251.7891,-2059.8357 -16.262,25.8278 15.7837,-0.2391 0.2391,3.1089 -17.6968,0.4783 -15.3054,23.6755 32.7631,-0.2391 -0.2392,2.8697 -34.9154,0.2392 -14.8271,23.6755 50.2208,0.2392 -0.2391,2.8697 -51.8949,0.2392 -14.1097,22.2406 66.0046,-0.4783 -0.7175,2.8698 -66.9611,0.7174 15.5446,24.393 52.134,0 0,3.3481 -50.46,0.2391 16.9794,24.6321 33.7197,-0.9565 0,2.8697 -33.2414,0.7175 17.2186,25.1104 16.5011,-24.8713 -0.2391,51.4166 6.2178,0.2391 -0.7175,-51.8948 17.9361,24.1538 14.5879,-24.1538 -31.5674,-0.4783 -0.7174,-3.8264 35.3937,0.9566 15.5446,-24.1538 -51.4166,0.2391 0,-4.0655 53.808,-0.2391 15.7837,-24.6322 -69.3526,0.2392 0.4783,-3.5872 66.4829,0.4783 -13.6314,-22.0015 -53.3298,0.2391 0,-3.1089 51.1775,-0.4783 -15.0663,-22.4798 -36.3503,-0.9566 0,-3.348 34.4371,0.4783 -15.3054,-24.1539 -19.1317,0.2392 0,-3.5872 17.6969,0.2391 -16.5012,-24.8713 z"
         id="path30607-5" />
    </g>
  </g>
</svg>
